<svg xmlns="http://www.w3.org/2000/svg" width="530.625" height="150.025" viewBox="0 0 530.625 150.025"><g transform="translate(-6859.375 -62.975)"><g transform="translate(6245 -71)"><path d="M8064.56,1235.837s-5.466-36.578,7.147-51.714c-2.522-10.511-3.339-34.946,2.968-38.729,3.363-1.682,17.213,3.808,23.52,14.319,15.556-8.409,37.839-9.25,47.93,0,13.033-15.136,20.181-16.793,24.806-13.43,4.625,3.784,5.045,11.772,2.1,33.635,16.817,23.545,8.829,55.918,8.829,55.918Z" transform="translate(-7444 -979)" fill="#e8c2d8" stroke="#36393f" stroke-linecap="round" stroke-linejoin="round" stroke-width="10"/><ellipse cx="6" cy="5.5" rx="6" ry="5.5" transform="translate(644 217)" fill="#36393f"/><ellipse cx="6" cy="5.5" rx="6" ry="5.5" transform="translate(701 217)" fill="#36393f"/><path d="M8177.309,1273.269s8.1-.424,8.979-9.4c1.178,8.98,9.716,9.4,9.716,9.4" transform="translate(-7507.347 -1044.965)" fill="none" stroke="#36393f" stroke-linecap="round" stroke-linejoin="round" stroke-width="5"/><path d="M8181.941,1281.385c.588,11.041,13.248,13.543,14.279,0" transform="translate(-7509.918 -1053.8)" fill="none" stroke="#36393f" stroke-width="5"/></g><text transform="translate(7015 165)" fill="#36393f" font-size="92" font-family="Baloo-Regular, Baloo"><tspan x="0" y="0">WONDER</tspan></text><g transform="translate(6891.658 97.34) rotate(-2)" fill="#fff" stroke-linecap="round"><path d="M 32.38525009155273 6.905243873596191 C 30.51324462890625 6.905243873596191 28.71421813964844 6.318662643432617 27.31633949279785 5.252972602844238 C 27.24566841125488 5.159873962402344 26.44735145568848 3.984699487686157 26.84114074707031 -0.5232060551643372 C 27.12461090087891 -3.768265962600708 27.9583911895752 -7.966845989227295 29.25234031677246 -12.66503620147705 C 30.37814140319824 -16.75265693664551 31.79847145080566 -21.02430534362793 33.25170135498047 -24.69310569763184 C 33.36519622802734 -24.97963333129883 33.47594451904297 -25.25503921508789 33.58364105224609 -25.51898574829102 C 34.50130462646484 -22.92611694335938 35.53212356567383 -19.80829429626465 36.48464965820312 -16.46177673339844 C 38.45120239257812 -9.552676200866699 39.44655990600586 -3.822486162185669 39.36313247680664 0.1093039363622665 C 39.31640243530273 2.31114387512207 38.59601974487305 4.034654140472412 37.22201156616211 5.231934070587158 C 35.98368072509766 6.310984134674072 34.26596069335938 6.905243873596191 32.38525009155273 6.905243873596191 Z" stroke="none"/><path d="M 33.43634033203125 -16.20904922485352 C 31.07138252258301 -8.658720016479492 29.08647155761719 -0.07933235168457031 29.78010559082031 3.277029037475586 C 30.54692649841309 3.681167602539062 31.46101570129395 3.905246734619141 32.3852424621582 3.905246734619141 C 34.16287994384766 3.905246734619141 36.29611206054688 3.235647201538086 36.36380767822266 0.04565811157226562 C 36.45536804199219 -4.269021987915039 35.14338684082031 -10.328782081604 33.43634033203125 -16.20904922485352 M 33.99947738647461 -32.90675354003906 C 36.96320724487305 -25.58795356750488 42.56960678100586 -9.588929176330566 42.36245346069336 0.1729526519775391 C 42.15528869628906 9.934846878051758 31.47313499450684 12.22577095031738 25.47006607055664 7.617740631103516 C 19.46699523925781 3.009706497192383 30.67340660095215 -29.27054214477539 33.99947738647461 -32.90675354003906 Z" stroke="none" fill="#36393f"/></g><g transform="matrix(0.999, -0.035, 0.035, 0.999, 6886.101, 93.323)" fill="#fff"><path d="M 30.00961875915527 19.92854499816895 C 29.8799934387207 19.87506103515625 29.72298049926758 19.73482513427734 29.5195255279541 19.36716651916504 C 28.82352638244629 18.10945510864258 28.56362533569336 15.7083158493042 28.84122467041016 13.10079574584961 C 29.13519477844238 10.33944606781006 29.9884147644043 7.60973596572876 31.12357521057129 5.798836231231689 C 32.96867370605469 2.855386018753052 36.97114562988281 0.7190060615539551 40.64055633544922 0.7190060615539551 C 41.83042526245117 0.7190060615539551 43.47933578491211 0.9521360397338867 44.57765579223633 2.062786102294922 C 45.43933486938477 2.934136152267456 46.23059463500977 4.775025844573975 46.69427490234375 6.987175941467285 C 47.17744445800781 9.292296409606934 47.25883483886719 11.82013607025146 46.91201400756836 13.74915599822998 C 46.58664321899414 15.55880069732666 46.01390838623047 16.1860408782959 45.88811111450195 16.24561500549316 C 45.88810729980469 16.2455940246582 45.8880500793457 16.24558448791504 45.88794326782227 16.24558448791504 C 45.8862419128418 16.24558448791504 45.87160110473633 16.24809646606445 45.8422737121582 16.24809646606445 L 45.49056625366211 16.24809646606445 L 45.14839553833008 16.32944679260254 L 30.00961875915527 19.92854499816895 Z" stroke="none"/><path d="M 40.64055633544922 3.719005584716797 C 38.02042388916016 3.719005584716797 34.95660400390625 5.332466125488281 33.66545486450195 7.392215728759766 C 32.05342102050781 9.963864326477051 31.56111526489258 14.08052444458008 31.78661346435547 16.4224681854248 L 43.93164443969727 13.5351037979126 C 44.53562927246094 11.03696727752686 43.75790405273438 5.54597282409668 42.44452667236328 4.172225952148438 C 42.23777389526367 3.963155746459961 41.64126586914062 3.719005584716797 40.64055633544922 3.719005584716797 M 40.64055252075195 -2.280998229980469 C 43.00749588012695 -2.280998229980469 45.19208526611328 -1.582414627075195 46.71078491210938 -0.04666328430175781 C 51.08380508422852 4.375446319580078 51.73434448242188 19.24809646606445 45.84227752685547 19.24809646606445 L 30.22263717651367 22.96151542663574 C 24.33056640625 22.96151542663574 24.72288513183594 10.36135578155518 28.58169555664062 4.205466270446777 C 31.10036468505859 0.1874561309814453 36.19202423095703 -2.280998229980469 40.64055252075195 -2.280998229980469 Z" stroke="none" fill="#36393f"/></g><g transform="matrix(0.998, -0.07, 0.07, 0.998, 6881.741, 112.06)" fill="#fff"><path d="M 51.90776443481445 16.66929817199707 C 42.87264251708984 16.04220771789551 35.94742202758789 15.55538082122803 32.75050354003906 15.32999992370605 C 32.58296966552734 14.73543548583984 32.41343307495117 13.990797996521 32.30149459838867 13.13352203369141 C 31.92022323608398 10.21362113952637 32.35189437866211 7.390721797943115 33.5844841003418 4.743251800537109 C 34.58485412597656 2.594591617584229 36.86312484741211 0.4037016034126282 39.83511352539062 -1.26762843132019 C 42.69463348388672 -2.875708341598511 45.90240478515625 -3.835748434066772 48.4159049987793 -3.835748434066772 C 49.51786041259766 -3.835748434066772 50.43622207641602 -3.642390251159668 51.01766967773438 -3.296546936035156 C 52.85889434814453 0.5122785568237305 53.80752944946289 4.589847087860107 53.76563262939453 8.535721778869629 C 53.73291397094727 11.61757564544678 53.0810546875 14.44334316253662 51.90776443481445 16.66929817199707 Z" stroke="none"/><path d="M 48.41591262817383 -0.8357563018798828 C 44.07864379882812 -0.8357563018798828 37.85298538208008 2.68281364440918 36.30417251586914 6.009463310241699 C 35.16402816772461 8.458365440368652 35.05006790161133 10.76499080657959 35.23667144775391 12.49519729614258 L 49.98544692993164 13.52652454376221 C 51.19769668579102 9.845635414123535 51.12656784057617 4.560321807861328 48.84712219238281 -0.8206520080566406 C 48.72289657592773 -0.8299169540405273 48.57963562011719 -0.8357563018798828 48.41591262817383 -0.8357563018798828 M 48.41590881347656 -6.835759162902832 C 50.46966552734375 -6.835759162902832 52.23829650878906 -6.339081764221191 53.40514373779297 -5.233026504516602 C 58.10439300537109 3.969303607940674 57.6341438293457 14.02618408203125 53.50297546386719 19.78714370727539 C 39.82193374633789 18.83885383605957 30.59523391723633 18.18528366088867 30.59523391723633 18.18528366088867 C 30.59523391723633 18.18528366088867 27.21419525146484 11.31809329986572 30.86480331420898 3.477023601531982 C 33.6000862121582 -2.398028373718262 42.27863311767578 -6.835759162902832 48.41590881347656 -6.835759162902832 Z" stroke="none" fill="#36393f"/></g></g></svg>